<?xml version="1.0" encoding="UTF-8" standalone="no"?>
<svg
   width="180"
   height="180"
   viewBox="0 0 180 180"
   version="1.1"
   id="svg1"
   xmlns="http://www.w3.org/2000/svg"
   xmlns:svg="http://www.w3.org/2000/svg">
  <defs
     id="defs1" />
  <g
     transform="translate(-10,-16)"
     id="g1"
     style="fill:#114293;fill-opacity:1;stroke:#dad9d5;stroke-width:8;stroke-dasharray:none;stroke-opacity:1">
    <path
       d="m 40,173.20508 a 170,170 0 0 0 120,0 36.222488,36.222488 0 0 0 20,-34.64102 170,170 0 0 0 -60,-103.923044 36.222488,36.222488 0 0 0 -40,0 170,170 0 0 0 -60,103.923044 36.222488,36.222488 0 0 0 20,34.64102 z"
       fill="#3498db"
       stroke="#2980b9"
       stroke-width="2"
       id="path1"
       style="fill:#114293;fill-opacity:1;stroke:#d4d4d4;stroke-width:12;stroke-dasharray:none;stroke-opacity:1" />
    <path
       d="M 58.726571,110.55536 A 87.420474,87.420474 0 0 0 96.744737,159.1616 18.626983,18.626983 0 0 0 117.11252,156.28774 87.420474,87.420474 0 0 0 140.19767,99.05993 18.626983,18.626983 0 0 0 127.52495,82.857844 87.420474,87.420474 0 0 0 66.421625,91.479421 18.626983,18.626983 0 0 0 58.726571,110.55536 Z"
       fill="#3498db"
       stroke="#2980b9"
       stroke-width="2"
       id="path2"
       style="fill:#d4d4d4;fill-opacity:1;stroke:none;stroke-width:4.1139;stroke-dasharray:none;stroke-opacity:1" />
  </g>
  <path
     d="m 127.9373,62.645979 v -3.020828 q 15.52081,-5.104159 20.8333,-5.104159 4.47916,0 8.12499,3.229162 3.74999,3.124995 6.97915,11.249982 3.33333,8.02082 3.33333,19.479134 0,20.72913 -8.12499,36.77078 -8.02082,16.04164 -22.81246,24.06246 -14.68748,7.91665 -29.37495,7.91665 -8.74999,0 -15.20831,-4.06249 -6.35416,-4.0625 -9.895821,-15.20831 -13.437478,19.2708 -35.520776,19.2708 -10.72915,0 -19.270803,-5.52082 -8.541653,-5.52083 -12.49998,-16.04164 -3.958327,-10.52082 -3.958327,-23.6458 0,-24.79163 13.958311,-40.208269 13.958311,-15.416642 41.145768,-19.999968 l 2.291663,3.020829 -0.624999,1.458331 Q 50.749922,62.437646 43.041601,73.270962 35.33328,84.10428 35.33328,104.00008 q 0,12.81248 3.229162,23.3333 3.333328,10.52081 7.708321,14.68747 4.479159,4.0625 10.520816,4.0625 5.104159,0 10.104151,-2.91667 5.104158,-2.91666 8.124987,-7.60415 3.020828,-4.79166 3.85416,-9.58332 0.833332,-4.89582 0.833332,-13.64581 l -0.104166,-17.49997 2.08333,-2.70833 19.895797,-1.66667 3.125,2.60417 q -0.52083,7.39582 -0.52083,14.27081 0,20.93746 4.16666,30.20828 4.16666,9.27082 13.12498,9.27082 6.35415,0 12.91664,-4.27083 6.56249,-4.37499 10.83332,-14.68747 4.27082,-10.41665 4.27082,-22.3958 0,-8.43749 -1.77083,-15.41664 -1.77083,-6.97916 -5.41665,-13.333313 -3.64583,-6.354157 -6.77083,-9.062486 -3.12499,-2.812495 -7.60415,-4.999992 z"
     id="text2"
     style="font-weight:bold;font-size:213.333px;font-family:Palatino;-inkscape-font-specification:'Palatino, Bold';fill:#e3ae00;fill-opacity:1;stroke:#e3ae00;stroke-width:10;stroke-linecap:round;stroke-linejoin:round;stroke-dasharray:none;stroke-opacity:1;paint-order:normal"
     aria-label="ω" />
</svg>
